<?xml version="1.0" encoding="UTF-8" standalone="no"?>
<!-- Created with Inkscape (http://www.inkscape.org/) -->

<svg
   xmlns:dc="http://purl.org/dc/elements/1.1/"
   xmlns:cc="http://creativecommons.org/ns#"
   xmlns:rdf="http://www.w3.org/1999/02/22-rdf-syntax-ns#"
   xmlns:svg="http://www.w3.org/2000/svg"
   xmlns="http://www.w3.org/2000/svg"
   xmlns:xlink="http://www.w3.org/1999/xlink"
   xmlns:sodipodi="http://sodipodi.sourceforge.net/DTD/sodipodi-0.dtd"
   xmlns:inkscape="http://www.inkscape.org/namespaces/inkscape"
   width="150"
   height="50"
   id="svg2"
   sodipodi:version="0.32"
   inkscape:version="0.48.1 r9760"
   sodipodi:docname="twitter.svg"
   inkscape:output_extension="org.inkscape.output.svg.inkscape"
   version="1.0">
  <defs
     id="defs4">
    <linearGradient
       id="linearGradient6292">
      <stop
         style="stop-color:#ffffff;stop-opacity:1;"
         offset="0"
         id="stop6294" />
      <stop
         style="stop-color:#d4d4d4;stop-opacity:1;"
         offset="1"
         id="stop6296" />
    </linearGradient>
    <linearGradient
       id="linearGradient6284">
      <stop
         style="stop-color:#8db1d8;stop-opacity:1;"
         offset="0"
         id="stop6286" />
      <stop
         style="stop-color:#396fa9;stop-opacity:1;"
         offset="1"
         id="stop6288" />
    </linearGradient>
    <inkscape:perspective
       sodipodi:type="inkscape:persp3d"
       inkscape:vp_x="0 : 526.18109 : 1"
       inkscape:vp_y="0 : 1000 : 0"
       inkscape:vp_z="744.09448 : 526.18109 : 1"
       inkscape:persp3d-origin="372.04724 : 350.78739 : 1"
       id="perspective10" />
    <radialGradient
       inkscape:collect="always"
       xlink:href="#linearGradient6284"
       id="radialGradient6311"
       gradientUnits="userSpaceOnUse"
       gradientTransform="matrix(1.182699,-1.1243094e-8,1.0950391e-8,1.1522079,-1.8271982,1.5963675)"
       cx="21.837509"
       cy="15.028527"
       fx="21.837509"
       fy="15.028527"
       r="23.000001" />
    <radialGradient
       inkscape:collect="always"
       xlink:href="#linearGradient6292"
       id="radialGradient6313"
       gradientUnits="userSpaceOnUse"
       gradientTransform="matrix(1.6729713,4.4920974e-8,-3.5021755e-8,1.304638,-19.109532,-6.3948376)"
       cx="28.345764"
       cy="26.960882"
       fx="28.345764"
       fy="26.960882"
       r="8.8414362" />
    <radialGradient
       inkscape:collect="always"
       xlink:href="#linearGradient6284"
       id="radialGradient6379"
       gradientUnits="userSpaceOnUse"
       gradientTransform="matrix(0.8147482,0,0,0.7900854,58.207933,15.451795)"
       cx="21.837509"
       cy="15.028527"
       fx="21.837509"
       fy="15.028527"
       r="23.000001" />
    <radialGradient
       inkscape:collect="always"
       xlink:href="#linearGradient6292"
       id="radialGradient6381"
       gradientUnits="userSpaceOnUse"
       gradientTransform="matrix(1.1524913,3.0802951e-8,-2.4126096e-8,0.8946088,46.302323,9.9721119)"
       cx="28.345764"
       cy="26.960882"
       fx="28.345764"
       fy="26.960882"
       r="8.8414362" />
    <radialGradient
       inkscape:collect="always"
       xlink:href="#linearGradient6284"
       id="radialGradient6669"
       gradientUnits="userSpaceOnUse"
       gradientTransform="matrix(0.6044865,0,0,0.5925641,96.799444,23.338845)"
       cx="21.837509"
       cy="15.028527"
       fx="21.837509"
       fy="15.028527"
       r="23.000001" />
    <radialGradient
       inkscape:collect="always"
       xlink:href="#linearGradient6292"
       id="radialGradient6671"
       gradientUnits="userSpaceOnUse"
       gradientTransform="matrix(0.8550683,2.3102213e-8,-1.7899884e-8,0.6709566,87.96631,19.229083)"
       cx="28.345764"
       cy="26.960882"
       fx="28.345764"
       fy="26.960882"
       r="8.8414362" />
    <radialGradient
       inkscape:collect="always"
       xlink:href="#linearGradient6292"
       id="radialGradient6699"
       gradientUnits="userSpaceOnUse"
       gradientTransform="matrix(0.5632556,1.4821876e-8,-1.1791117e-8,0.4304711,121.56119,28.366781)"
       cx="28.345764"
       cy="26.960882"
       fx="28.345764"
       fy="26.960882"
       r="8.8414362" />
  </defs>
  <sodipodi:namedview
     id="base"
     pagecolor="#ffffff"
     bordercolor="#666666"
     borderopacity="1.0"
     gridtolerance="10000"
     guidetolerance="10"
     objecttolerance="10"
     inkscape:pageopacity="0.0"
     inkscape:pageshadow="2"
     inkscape:zoom="6.2266667"
     inkscape:cx="43.147503"
     inkscape:cy="25"
     inkscape:document-units="px"
     inkscape:current-layer="layer1"
     showgrid="false"
     inkscape:snap-bbox="true"
     inkscape:snap-nodes="false"
     inkscape:window-width="644"
     inkscape:window-height="654"
     inkscape:window-x="86"
     inkscape:window-y="35"
     inkscape:showpageshadow="false"
     showguides="true"
     inkscape:guide-bbox="true"
     inkscape:window-maximized="0" />
  <metadata
     id="metadata7">
    <rdf:RDF>
      <cc:Work
         rdf:about="">
        <dc:format>image/svg+xml</dc:format>
        <dc:type
           rdf:resource="http://purl.org/dc/dcmitype/StillImage" />
        <dc:title></dc:title>
      </cc:Work>
    </rdf:RDF>
  </metadata>
  <g
     inkscape:label="Layer 1"
     inkscape:groupmode="layer"
     id="layer1">
    <g
       id="g6368"
       transform="translate(4,0)"
       inkscape:export-filename="/home/tom/tmp/azae.net/public/twitter.png"
       inkscape:export-xdpi="90"
       inkscape:export-ydpi="90">
      <rect
         y="1"
         x="1"
         height="48"
         width="48"
         id="rect6309"
         style="opacity:0;fill:#ffffff;fill-opacity:1;fill-rule:evenodd;stroke:none" />
      <g
         transform="translate(1,0)"
         id="g6300">
        <path
           inkscape:connector-curvature="0"
           style="fill:#3465a4;fill-rule:evenodd;stroke:#204a87;stroke-width:1px;stroke-linecap:round;stroke-linejoin:round;stroke-opacity:1"
           d="M 31.938641,15.962039 21.399634,8.1698067 C 19.883346,6.9344078 16.971503,7.02025 21.84983,11.81094 19.882079,9.442118 16.838407,9.222382 20.216265,13.210871 c -1.096272,-1.31743 -2.944031,-0.411845 -1.812904,0.920208 l 6.655166,8.459969 6.880114,-6.629009 z"
           id="path6272"
           sodipodi:nodetypes="ccccccc" />
        <path
           inkscape:connector-curvature="0"
           style="opacity:0.5;fill:none;stroke:#ffffff;stroke-width:1px;stroke-linecap:round;stroke-linejoin:miter;stroke-opacity:1"
           d="m 20.579539,8.8160565 10.24972,7.5722765"
           id="path6280"
           sodipodi:nodetypes="cc" />
        <path
           inkscape:connector-curvature="0"
           style="fill:url(#radialGradient6311);fill-opacity:1;fill-rule:evenodd;stroke:#204a87;stroke-width:1px;stroke-linecap:round;stroke-linejoin:round;stroke-opacity:1"
           d="m 1.5,27.548408 c 16.031276,22.25383 36.294944,16.920385 40.832724,1.847758 0.509386,-1.691969 0.801651,-3.641614 0.845712,-5.598627 l 3.321566,-2.321447 -3.538203,-1.300796 C 41.93742,13.312402 37.976985,7.3487675 28.183981,16.921399 L 17.790862,9.162525 c -1.495299,-1.2301103 -4.366834,-1.1446356 0.443964,3.625548 -1.940512,-2.358683 -4.942052,-2.577478 -1.610952,1.393936 -0.939146,-1.652515 -2.903278,-0.410082 -1.787809,0.916268 l 6.563041,8.423756 C 13.677358,31.131869 10.824852,33.038211 1.5,27.548408 z"
           id="path5500"
           sodipodi:nodetypes="cscccccccccc" />
        <path
           inkscape:connector-curvature="0"
           style="fill:url(#radialGradient6313);fill-opacity:1;fill-rule:evenodd;stroke:none"
           d="m 35.888239,38.939062 c 3.112418,-2.639363 5.144691,-5.457833 6.2439,-9.08076 -2.560143,-4.434875 -22.1515,5.795979 -16.743249,12.654679 5.193397,-0.291933 7.259033,-1.397216 10.499349,-3.573919 z"
           id="path6276"
           sodipodi:nodetypes="cccc" />
        <path
           inkscape:connector-curvature="0"
           style="opacity:0.5;fill:none;stroke:#ffffff;stroke-width:1;stroke-linecap:round;stroke-linejoin:miter;stroke-miterlimit:10;stroke-opacity:1;stroke-dasharray:none"
           d="m 16.308726,9.3199643 12.005307,8.9796187 c 7.169621,-8.086592 12.547272,-6.818392 13.70538,2.50566 l 2.342471,0.96205 -2.181871,1.55916 c 0.420086,7.975687 -5.948046,18.171081 -16.703448,18.171081 -6.308288,0 -13.396895,-2.956618 -20.4615757,-11.058409 5.5366867,2.201385 8.7585797,2.476997 17.7697717,-6.840148 l -7.285433,-9.232474"
           id="path6274"
           sodipodi:nodetypes="cccccsccc" />
        <path
           inkscape:connector-curvature="0"
           style="fill:none;stroke:#204a87;stroke-width:1px;stroke-linecap:round;stroke-linejoin:round;stroke-opacity:1"
           d="m 1.5,27.548408 c 16.031276,22.25383 36.294944,16.920385 40.832724,1.847758 0.509386,-1.691969 0.801651,-3.641613 0.845712,-5.598626 l 3.321566,-2.321447 -3.538203,-1.300796 C 41.93742,13.312403 37.976985,7.3487684 28.183981,16.9214 L 17.790862,9.162526 c -1.495299,-1.2301108 -4.366834,-1.1446357 0.443964,3.625548 -1.940512,-2.358683 -4.942052,-2.577478 -1.610952,1.393936 -0.939146,-1.652515 -2.903278,-0.410082 -1.787809,0.916268 l 6.563041,8.423756 C 13.677358,31.131869 10.824851,33.038211 1.5,27.548408 z"
           id="path6278"
           sodipodi:nodetypes="cscccccccccc" />
        <path
           sodipodi:type="arc"
           style="opacity:0.8;fill:#ffffff;fill-opacity:1;fill-rule:evenodd;stroke:none"
           id="path6282"
           sodipodi:cx="37.248024"
           sodipodi:cy="18.060955"
           sodipodi:rx="1.9873183"
           sodipodi:ry="3.0377579"
           d="m 39.235342,18.060955 c 0,1.677707 -0.889752,3.037758 -1.987318,3.037758 -1.097566,0 -1.987318,-1.360051 -1.987318,-3.037758 0,-1.677707 0.889752,-3.037758 1.987318,-3.037758 1.097566,0 1.987318,1.360051 1.987318,3.037758 z"
           transform="matrix(0.9679781,0.2753933,-0.2702106,0.9500085,6.9168375,-7.4188348)" />
      </g>
    </g>
    <g
       id="g6357"
       inkscape:export-filename="C:\Documents and Settings\StarkC\Desktop\original inkscape\twitter\32x32\twitter.png"
       inkscape:export-xdpi="90"
       inkscape:export-ydpi="90">
      <g
         id="g6346">
        <path
           inkscape:connector-curvature="0"
           style="fill:#3465a4;fill-rule:evenodd;stroke:#204a87;stroke-width:1.00000012px;stroke-linecap:round;stroke-linejoin:round;stroke-opacity:1"
           d="m 81.468845,25.302541 -7.260206,-5.343245 c -1.044553,-0.847131 -3.05049,-0.788267 0.310136,2.496777 -1.355563,-1.624335 -3.452314,-1.775011 -1.125345,0.959952 -0.75521,-0.90338 -2.02811,-0.282407 -1.248889,0.631 l 4.58467,5.801122 4.739634,-4.545606 z"
           id="path6317"
           sodipodi:nodetypes="ccccccc" />
        <path
           inkscape:connector-curvature="0"
           style="opacity:0.5;fill:none;stroke:#ffffff;stroke-width:1.00000012px;stroke-linecap:round;stroke-linejoin:miter;stroke-opacity:1"
           d="m 73.278843,20.523493 7.364953,5.515228"
           id="path6319"
           sodipodi:nodetypes="cc" />
        <path
           inkscape:connector-curvature="0"
           style="fill:url(#radialGradient6379);fill-opacity:1;fill-rule:evenodd;stroke:#204a87;stroke-width:1.00000012px;stroke-linecap:round;stroke-linejoin:round;stroke-opacity:1"
           d="m 60.500003,33.247479 c 11.043768,15.259768 25.003183,11.602549 28.129209,1.267034 0.35091,-1.160207 0.552249,-2.497107 0.582602,-3.839059 l 2.28819,-1.591849 -2.437429,-0.891974 C 88.356892,23.485647 85.628593,19.396298 78.8823,25.960388 l -7.159704,-5.320371 c -1.030094,-0.843504 -3.008262,-0.784893 0.305843,2.48609 -1.336798,-1.617383 -3.404525,-1.767414 -1.109767,0.955842 -0.646967,-1.133153 -2.000036,-0.2812 -1.231602,0.628298 l 4.521206,5.77629 c -5.319426,5.218172 -7.284486,6.525378 -13.708273,2.760942 z"
           id="path6321"
           sodipodi:nodetypes="cscccccccccc" />
        <path
           inkscape:connector-curvature="0"
           style="fill:url(#radialGradient6381);fill-opacity:1;fill-rule:evenodd;stroke:none"
           d="m 84.189675,41.058212 c 2.144109,-1.809849 3.54412,-3.742514 4.301353,-6.226805 -1.763655,-3.041058 -15.259922,3.974385 -11.534238,8.677492 3.577673,-0.200182 5.000667,-0.95809 7.232885,-2.450687 z"
           id="path6323"
           sodipodi:nodetypes="cccc" />
        <path
           inkscape:connector-curvature="0"
           style="opacity:0.5;fill:none;stroke:#ffffff;stroke-width:1.00000012;stroke-linecap:round;stroke-linejoin:miter;stroke-miterlimit:10;stroke-opacity:1;stroke-dasharray:none"
           d="m 70.98635,21.298198 8.048647,6.046924 c 4.939071,-5.545091 8.454363,-4.926722 9.062858,1.59254 l 1.203524,0.439844 -1.092889,0.755071 c 0.126209,6.412652 -4.36917,12.428762 -11.191298,12.428762 -4.661231,0 -8.259534,-1.87715 -13.252604,-6.849855 2.933622,1.20903 5.566246,1.755804 11.745324,-5.203593 l -5.11351,-6.550686"
           id="path6325"
           sodipodi:nodetypes="cccccsccc" />
        <path
           inkscape:connector-curvature="0"
           style="fill:none;stroke:#204a87;stroke-width:1;stroke-linecap:round;stroke-linejoin:round;stroke-miterlimit:4;stroke-opacity:1;stroke-dasharray:none"
           d="m 60.500003,33.247479 c 11.043768,15.259768 25.003183,11.602549 28.129209,1.267034 0.35091,-1.160207 0.552249,-2.497106 0.582602,-3.839058 l 2.28819,-1.591849 -2.437429,-0.891974 C 88.356892,23.485648 85.628593,19.396298 78.8823,25.960388 l -7.159704,-5.32037 c -1.030094,-0.843505 -3.008262,-0.784893 0.305843,2.48609 -1.336798,-1.617383 -3.404525,-1.767414 -1.109767,0.955842 -0.646967,-1.133153 -2.000036,-0.2812 -1.231602,0.628297 l 4.521206,5.77629 c -5.319426,5.218172 -7.284487,6.525378 -13.708273,2.760942 z"
           id="path6327"
           sodipodi:nodetypes="cscccccccccc" />
        <path
           sodipodi:type="arc"
           style="opacity:0.8;fill:#ffffff;fill-opacity:1;fill-rule:evenodd;stroke:none"
           id="path6329"
           sodipodi:cx="37.248024"
           sodipodi:cy="18.060955"
           sodipodi:rx="1.9873183"
           sodipodi:ry="3.0377579"
           d="m 39.235342,18.060955 a 1.9873183,3.0377579 0 1 1 -3.974636,0 1.9873183,3.0377579 0 1 1 3.974636,0 z"
           transform="matrix(0.6668293,0.1888411,-0.1861451,0.6514344,64.192141,10.123333)" />
      </g>
      <rect
         y="15"
         x="60"
         height="32"
         width="32"
         id="rect6355"
         style="opacity:0;fill:#ffffff;fill-opacity:1;fill-rule:evenodd;stroke:none" />
    </g>
    <g
       id="g6673"
       inkscape:export-filename="C:\Documents and Settings\StarkC\Desktop\original inkscape\twitter\24x24\twitter.png"
       inkscape:export-xdpi="90"
       inkscape:export-ydpi="90">
      <g
         id="g6660">
        <path
           inkscape:connector-curvature="0"
           style="fill:#3465a4;fill-rule:evenodd;stroke:#204a87;stroke-width:1.00000012px;stroke-linecap:round;stroke-linejoin:round;stroke-opacity:1"
           d="m 114.05742,30.726905 -5.38657,-4.007434 c -0.77498,-0.635348 -2.26325,-0.5912 0.2301,1.872583 -1.00573,-1.218251 -2.56137,-1.331258 -0.83492,0.719964 -0.56032,-0.677535 -1.50472,-0.211806 -0.92659,0.47325 l 3.4015,4.350841 3.51648,-3.409204 z"
           id="path6387"
           sodipodi:nodetypes="ccccccc" />
        <path
           inkscape:connector-curvature="0"
           style="opacity:0.5;fill:none;stroke:#ffffff;stroke-width:1.00000012px;stroke-linecap:round;stroke-linejoin:miter;stroke-opacity:1"
           d="m 108.11837,27.539544 7.36496,5.515228"
           id="path6643"
           sodipodi:nodetypes="cc" />
        <path
           inkscape:connector-curvature="0"
           style="fill:url(#radialGradient6669);fill-opacity:1;fill-rule:evenodd;stroke:#204a87;stroke-width:1.00000012px;stroke-linecap:round;stroke-linejoin:round;stroke-opacity:1"
           d="m 98.5,36.685608 c 8.19371,11.444826 18.55062,8.701912 20.86992,0.950276 0.26035,-0.870155 0.40973,-1.872831 0.43225,-2.879295 l 1.69767,-1.193886 -1.8084,-0.668981 c -0.52357,-3.529488 -2.54777,-6.596499 -7.55305,-1.673432 l -5.31201,-3.990278 c -0.76425,-0.632628 -2.23192,-0.58867 0.22692,1.864567 -0.99181,-1.213037 -2.52592,-1.32556 -0.82337,0.716882 -0.48001,-0.849865 -1.48389,-0.2109 -0.91377,0.471223 l 3.35442,4.332218 C 104.72394,38.528531 103.266,39.508935 98.5,36.685608 z"
           id="path6391"
           sodipodi:nodetypes="cscccccccccc" />
        <path
           inkscape:connector-curvature="0"
           style="fill:url(#radialGradient6671);fill-opacity:1;fill-rule:evenodd;stroke:none"
           d="m 116.07609,42.543658 c 1.59078,-1.357387 2.62949,-2.806885 3.1913,-4.670104 -1.30851,-2.280793 -11.3218,2.980789 -8.5576,6.508119 2.65439,-0.150136 3.71015,-0.718567 5.3663,-1.838015 z"
           id="path6393"
           sodipodi:nodetypes="cccc" />
        <path
           inkscape:connector-curvature="0"
           style="opacity:0.5;fill:none;stroke:#ffffff;stroke-width:1.00000012;stroke-linecap:round;stroke-linejoin:miter;stroke-miterlimit:10;stroke-opacity:1;stroke-dasharray:none"
           d="m 105.99624,27.922379 6.28383,4.648754 c 3.66444,-4.073647 5.73313,-4.120895 6.52528,0.995674 l 0.60903,0.244712 -0.58373,0.395961 c -0.16187,5.320514 -3.26879,9.15123 -8.55867,9.15123 -3.45831,0 -5.23615,-1.292075 -8.42557,-4.217251 1.69977,0.195498 3.33761,0.799344 8.13058,-4.510542 l -3.79387,-4.884624"
           id="path6395"
           sodipodi:nodetypes="cccccsccc" />
        <path
           inkscape:connector-curvature="0"
           style="fill:none;stroke:#204a87;stroke-width:0.99999994;stroke-linecap:round;stroke-linejoin:round;stroke-miterlimit:4;stroke-opacity:1;stroke-dasharray:none"
           d="m 98.5,36.685608 c 8.19371,11.444826 18.55062,8.701912 20.86992,0.950276 0.26035,-0.870155 0.40973,-1.87283 0.43225,-2.879294 l 1.69767,-1.193887 -1.8084,-0.66898 c -0.52357,-3.529488 -2.54777,-6.5965 -7.55305,-1.673433 l -5.31201,-3.990277 c -0.76425,-0.632629 -2.23192,-0.58867 0.22692,1.864567 -0.99181,-1.213037 -2.52592,-1.325561 -0.82337,0.716882 -0.48001,-0.849865 -1.48389,-0.2109 -0.91377,0.471222 l 3.35442,4.332218 C 104.72394,38.528531 103.266,39.508935 98.5,36.685608 z"
           id="path6397"
           sodipodi:nodetypes="cscccccccccc" />
        <path
           sodipodi:type="arc"
           style="opacity:0.8;fill:#ffffff;fill-opacity:1;fill-rule:evenodd;stroke:none"
           id="path6399"
           sodipodi:cx="37.248024"
           sodipodi:cy="18.060955"
           sodipodi:rx="1.9873183"
           sodipodi:ry="3.0377579"
           d="m 39.235342,18.060955 a 1.9873183,3.0377579 0 1 1 -3.974636,0 1.9873183,3.0377579 0 1 1 3.974636,0 z"
           transform="matrix(0.4947409,0.1416308,-0.1381067,0.4885758,101.23931,19.342499)" />
      </g>
      <rect
         y="23.999998"
         x="98"
         height="24"
         width="24"
         id="rect6401"
         style="opacity:0;fill:#ffffff;fill-opacity:1;fill-rule:evenodd;stroke:none" />
    </g>
    <g
       id="g6711"
       inkscape:export-filename="C:\Documents and Settings\StarkC\Desktop\original inkscape\twitter\16x16\twitter.png"
       inkscape:export-xdpi="90"
       inkscape:export-ydpi="90">
      <rect
         y="31.000002"
         x="128"
         height="15.999999"
         width="16"
         id="rect6454"
         style="opacity:0;fill:#ffffff;fill-opacity:1;fill-rule:evenodd;stroke:none" />
      <g
         id="g6704">
        <path
           inkscape:connector-curvature="0"
           style="fill:#729fcf;fill-opacity:1;fill-rule:evenodd;stroke:#204a87;stroke-width:1.00000012px;stroke-linecap:round;stroke-linejoin:round;stroke-opacity:1"
           d="m 128.49999,39.566507 c 5.34377,7.342751 12.09831,5.582957 13.61092,0.609677 0.16979,-0.558273 0.26722,-1.201568 0.2819,-1.847294 l 1.10718,-0.76597 -1.1794,-0.429203 c -0.34146,-2.264444 -1.66159,-4.23217 -4.92593,-1.073638 l -2.54093,-1.797228 c -0.99992,-0.526208 -2.06503,0.750389 -0.98493,1.958528 l 1.26423,2.016608 c -2.57392,2.510899 -3.52475,3.139906 -6.63304,1.32852 z"
           id="path6444"
           sodipodi:nodetypes="cscccccccc" />
        <path
           inkscape:connector-curvature="0"
           style="fill:url(#radialGradient6699);fill-opacity:1;fill-rule:evenodd;stroke:none"
           d="m 140.07783,43.324903 c 1.04788,-0.87087 1.73211,-1.800835 2.10219,-2.996237 -0.86195,-1.463306 -7.45796,1.91241 -5.63711,4.175467 1.74851,-0.09632 2.44397,-0.461016 3.53492,-1.17923 z"
           id="path6446"
           sodipodi:nodetypes="cccc" />
        <path
           inkscape:connector-curvature="0"
           style="opacity:0.5;fill:none;stroke:#ffffff;stroke-width:1.00000012;stroke-linecap:butt;stroke-linejoin:miter;stroke-miterlimit:10;stroke-opacity:1;stroke-dasharray:none"
           d="m 134.76843,35.823505 c -0.52385,-0.70537 -0.40534,-0.689027 0.16079,-0.184132 l 2.56289,1.702146 c 2.28611,-2.18497 3.36491,-3.086296 3.90092,0.224034 l 0.0167,0.411041 c -0.007,3.012583 -1.67061,5.553241 -5.15519,5.553241 -1.96579,0 -3.87239,-1.310635 -4.57993,-1.990156 1.39287,-0.02619 2.83241,-1.073712 4.79727,-3.263765 l -1.70342,-2.452409 z"
           id="path6448"
           sodipodi:nodetypes="cccccsccc" />
        <path
           transform="matrix(0.4947409,0.1416308,-0.1381067,0.4885758,124.631,23.935719)"
           d="m 39.235342,18.060955 a 1.9873183,3.0377579 0 1 1 -3.974636,0 1.9873183,3.0377579 0 1 1 3.974636,0 z"
           sodipodi:ry="3.0377579"
           sodipodi:rx="1.9873183"
           sodipodi:cy="18.060955"
           sodipodi:cx="37.248024"
           id="path6545"
           style="opacity:0.8;fill:#ffffff;fill-opacity:1;fill-rule:evenodd;stroke:none"
           sodipodi:type="arc" />
        <path
           inkscape:connector-curvature="0"
           style="fill:none;stroke:#204a87;stroke-width:1.00000012px;stroke-linecap:round;stroke-linejoin:round;stroke-opacity:1"
           d="m 128.5,39.566655 c 5.34377,7.342751 12.09831,5.582957 13.61092,0.609677 0.16979,-0.558273 0.26722,-1.201568 0.2819,-1.847294 l 0.74751,-0.517141 0.35967,-0.248829 -1.1794,-0.429203 c -0.34146,-2.264444 -1.66159,-4.23217 -4.92593,-1.073638 l -2.54093,-1.797228 c -0.99992,-0.526208 -2.06503,0.750389 -0.98493,1.958528 l 1.26423,2.016608 c -2.57392,2.510899 -3.52475,3.139906 -6.63304,1.32852 z"
           id="path6702"
           sodipodi:nodetypes="csccccccccc" />
      </g>
    </g>
  </g>
</svg>
